<?xml version="1.0" encoding="UTF-8" standalone="no"?>
<!DOCTYPE svg PUBLIC "-//W3C//DTD SVG 1.1//EN" "http://www.w3.org/Graphics/SVG/1.1/DTD/svg11.dtd">
<svg width="100%" height="100%" viewBox="0 0 1575 1821" version="1.1" xmlns="http://www.w3.org/2000/svg" xmlns:xlink="http://www.w3.org/1999/xlink" xml:space="preserve" xmlns:serif="http://www.serif.com/" style="fill-rule:evenodd;clip-rule:evenodd;stroke-linejoin:round;stroke-miterlimit:2;">
    <g transform="matrix(1.33333,0,0,1.33333,0,0)">
        <g transform="matrix(-0.311,-0.538668,0.538668,-0.311,-1588.54,2866.55)">
            <path d="M387.133,4240.75L1286.5,4760L2185.87,4240.75L1286.5,3721.5L387.133,4240.75Z" style="fill:rgb(235,235,227);"/>
        </g>
        <g transform="matrix(0.622,-3.01799e-17,3.01799e-17,0.622,-208.451,-2292.05)">
            <path d="M387.133,4240.75L1286.5,4760L2185.87,4240.75L1286.5,3721.5L387.133,4240.75Z" style="fill:rgb(136,169,152);"/>
        </g>
        <g transform="matrix(-0.311,0.538668,-0.538668,-0.311,3569.63,1484.05)">
            <path d="M387.133,4240.75L1286.5,4760L2185.87,4240.75L1286.5,3721.5L387.133,4240.75Z" style="fill:rgb(17,71,97);"/>
        </g>
        <g transform="matrix(3.32735,0,0,3.32735,-11518.7,-19300.8)">
            <g transform="matrix(0.679318,0,0,0.679318,1905.23,2520.46)">
                <g>
                    <g transform="matrix(1.52854,0,0,1.52854,-1915.78,1854.22)">
                        <path d="M2792.22,2165.99C2792.35,2178.82 2792.47,2191.65 2792.6,2204.48C2790.4,2203.29 2788.21,2202.09 2786.02,2200.89C2785.97,2195.62 2785.91,2190.35 2785.86,2185.08C2782.45,2183.22 2779.04,2181.37 2775.63,2179.52C2775.69,2184.78 2775.75,2190.05 2775.81,2195.31C2773.63,2194.12 2771.44,2192.93 2769.26,2191.73C2769.11,2178.94 2768.96,2166.14 2768.81,2153.35C2771,2154.53 2773.19,2155.72 2775.38,2156.9C2775.44,2161.92 2775.49,2166.94 2775.55,2171.97C2778.96,2173.82 2782.37,2175.67 2785.78,2177.52C2785.73,2172.49 2785.68,2167.46 2785.62,2162.43C2787.82,2163.62 2790.02,2164.8 2792.22,2165.99Z" style="fill:rgb(177,139,68);fill-rule:nonzero;"/>
                    </g>
                    <g transform="matrix(1.47207,0,0,1.47207,-3527.97,-3638.65)">
                        <g transform="matrix(0.679318,0,0,0.679318,2396.61,2471.8)">
                            <g>
                                <g transform="matrix(1.52854,0,0,1.52854,-1915.78,1854.22)">
                                    <path d="M2792.22,2165.99C2792.35,2178.82 2792.47,2191.65 2792.6,2204.48C2790.4,2203.29 2788.21,2202.09 2786.02,2200.89C2785.97,2195.62 2785.91,2190.35 2785.86,2185.08C2782.45,2183.22 2779.04,2181.37 2775.63,2179.52C2775.69,2184.78 2775.75,2190.05 2775.81,2195.31C2773.63,2194.12 2771.44,2192.93 2769.26,2191.73C2769.11,2178.94 2768.96,2166.14 2768.81,2153.35C2771,2154.53 2773.19,2155.72 2775.38,2156.9C2775.44,2161.92 2775.49,2166.94 2775.55,2171.97C2778.96,2173.82 2782.37,2175.67 2785.78,2177.52C2785.73,2172.49 2785.68,2167.46 2785.62,2162.43C2787.82,2163.62 2790.02,2164.8 2792.22,2165.99Z" style="fill:rgb(177,139,68);fill-rule:nonzero;"/>
                                </g>
                                <g transform="matrix(1.52854,0,0,1.52854,-1915.02,1854.22)">
                                    <path d="M2819.95,2181.24C2816.88,2188.16 2813.8,2195.07 2810.73,2201.99C2810.77,2206.24 2810.8,2210.48 2810.84,2214.72C2808.64,2213.52 2806.43,2212.32 2804.23,2211.12C2804.2,2206.88 2804.16,2202.63 2804.12,2198.39C2800.91,2188.09 2797.71,2177.79 2794.5,2167.49C2797,2168.84 2799.5,2170.19 2802,2171.54C2803.8,2177.88 2805.6,2184.22 2807.4,2190.56C2809.1,2186.11 2810.8,2181.66 2812.5,2177.21C2814.98,2178.55 2817.47,2179.9 2819.95,2181.24Z" style="fill:rgb(177,139,68);fill-rule:nonzero;"/>
                                </g>
                                <g transform="matrix(1.52854,0,0,1.52854,-1914.63,1854.22)">
                                    <path d="M2836.63,2228.95C2834.7,2223.06 2832.78,2217.16 2830.86,2211.27C2830.33,2210.98 2829.8,2210.7 2829.27,2210.41C2829.3,2215.26 2829.33,2220.12 2829.37,2224.98C2827.16,2223.77 2824.95,2222.57 2822.74,2221.36C2822.64,2208.48 2822.55,2195.61 2822.46,2182.73C2826.18,2184.74 2829.91,2186.75 2833.63,2188.76C2835.89,2189.98 2837.78,2191.64 2839.15,2193.34C2840.72,2195.28 2841.88,2197.48 2842.59,2199.58C2843.36,2201.86 2843.75,2204.25 2843.76,2206.4C2843.76,2206.82 2843.83,2210.19 2842.26,2212.47C2840.79,2214.58 2838.53,2214.4 2837.74,2214.3C2839.87,2220.55 2842,2226.8 2844.13,2233.05C2841.63,2231.68 2839.13,2230.32 2836.63,2228.95ZM2829.23,2203.74C2830.6,2204.49 2831.97,2205.24 2833.35,2205.98C2833.39,2206 2835.1,2207.04 2836.08,2206.2C2837.06,2205.37 2836.98,2203.19 2836.98,2203.11C2836.97,2201.41 2836.52,2200.06 2836.04,2199.14C2835.55,2198.2 2834.68,2197.14 2833.29,2196.39C2831.91,2195.64 2830.54,2194.9 2829.16,2194.15C2829.18,2197.35 2829.2,2200.55 2829.23,2203.74Z" style="fill:rgb(177,139,68);fill-rule:nonzero;"/>
                                </g>
                                <g transform="matrix(1.52854,0,0,1.52854,-1914.82,1854.22)">
                                    <path d="M2854.53,2199.98C2854.56,2207.72 2854.6,2215.46 2854.63,2223.2C2854.63,2223.66 2854.62,2226.61 2855.87,2229.21C2856.64,2230.83 2857.88,2232.18 2859.43,2233.03C2859.65,2233.15 2861.72,2234.36 2863.02,2233.11C2864.35,2231.83 2864.25,2228.61 2864.25,2228.43C2864.22,2220.68 2864.2,2212.93 2864.17,2205.18C2866.41,2206.39 2868.64,2207.6 2870.88,2208.81C2870.9,2216.55 2870.93,2224.28 2870.95,2232.02C2870.95,2232.55 2871.03,2237.1 2869.41,2239.95C2869.16,2240.39 2867.88,2242.69 2865.22,2243.07C2862.5,2243.46 2859.72,2241.89 2859.35,2241.68C2857.4,2240.62 2855.34,2238.95 2853.54,2236.72C2852.18,2235.02 2850.62,2232.47 2849.48,2229.12C2848.72,2226.86 2847.98,2223.55 2847.96,2219.51C2847.92,2211.8 2847.88,2204.08 2847.84,2196.37C2850.07,2197.57 2852.3,2198.78 2854.53,2199.98Z" style="fill:rgb(177,139,68);fill-rule:nonzero;"/>
                                </g>
                                <g transform="matrix(1.52854,0,0,1.52854,-1915.59,1854.22)">
                                    <path d="M2897.03,2235.22C2897.03,2235.64 2897.07,2238.54 2895.93,2240.81C2895.19,2242.3 2893.98,2243.19 2892.55,2243.49C2890.16,2243.99 2887.2,2242.3 2886.89,2242.13C2885.5,2241.37 2884.11,2240.62 2882.72,2239.86C2882.73,2244.51 2882.74,2249.16 2882.75,2253.8C2880.51,2252.58 2878.28,2251.36 2876.04,2250.14C2876.01,2237.18 2875.97,2224.23 2875.94,2211.27C2879.57,2213.23 2883.21,2215.2 2886.84,2217.16C2889.22,2218.45 2891.12,2220.15 2892.44,2221.8C2893.98,2223.71 2895.16,2225.93 2895.88,2228.1C2896.6,2230.25 2897.03,2232.74 2897.03,2235.22ZM2886.36,2234.31C2886.39,2234.33 2888.21,2235.42 2889.23,2234.6C2890.24,2233.78 2890.17,2231.58 2890.17,2231.5C2890.17,2231.13 2890.18,2229.19 2889.22,2227.38C2888.78,2226.55 2887.92,2225.4 2886.34,2224.55C2885.12,2223.89 2883.9,2223.22 2882.68,2222.57C2882.69,2225.82 2882.7,2229.07 2882.7,2232.33C2883.92,2232.99 2885.14,2233.65 2886.36,2234.31Z" style="fill:rgb(177,139,68);fill-rule:nonzero;"/>
                                </g>
                            </g>
                        </g>
                    </g>
                    <g transform="matrix(1.52854,0,0,1.52854,-2131.76,1852.71)">
                        <path d="M2920.37,2202.97C2922.83,2204.32 2925.51,2206.44 2927.84,2209.45C2929.75,2211.91 2931.57,2215.13 2932.85,2218.9C2933.99,2222.3 2934.65,2226.09 2934.69,2229.88C2934.7,2230.7 2934.78,2235.42 2933.04,2238.9C2932.31,2240.35 2930.91,2242.38 2928.17,2242.92C2925.09,2243.52 2921.86,2241.81 2920.79,2241.21C2917.44,2239.36 2914.09,2237.51 2910.74,2235.66C2910.6,2222.92 2910.45,2210.19 2910.3,2197.46C2913.65,2199.3 2917.01,2201.14 2920.37,2202.97ZM2920.28,2232.93C2921.6,2233.66 2924.16,2234.83 2926.03,2233.24C2928.06,2231.49 2928.03,2227.32 2928.01,2226.2C2928,2225.03 2927.92,2220.84 2925.86,2216.83C2924.24,2213.69 2922.05,2211.81 2920.04,2210.71C2919,2210.14 2917.97,2209.57 2916.93,2209.01C2917.02,2216.41 2917.1,2223.82 2917.18,2231.22C2918.21,2231.79 2919.25,2232.36 2920.28,2232.93Z" style="fill:rgb(177,139,68);fill-rule:nonzero;"/>
                    </g>
                    <g transform="matrix(1.52854,0,0,1.52854,-2133.1,1852.71)">
                        <path d="M2945.46,2223.68C2945.48,2226.27 2945.51,2228.86 2945.53,2231.45C2948.47,2233.06 2951.41,2234.68 2954.36,2236.3C2954.37,2238.7 2954.39,2241.11 2954.41,2243.52C2951.47,2241.9 2948.53,2240.28 2945.59,2238.66C2945.62,2241.46 2945.64,2244.26 2945.67,2247.06C2948.99,2248.9 2952.31,2250.73 2955.64,2252.57C2955.66,2255.06 2955.68,2257.56 2955.7,2260.05C2950.19,2257 2944.68,2253.95 2939.17,2250.9C2939.05,2238.13 2938.93,2225.35 2938.8,2212.58C2944.33,2215.61 2949.86,2218.63 2955.39,2221.65C2955.41,2224.16 2955.43,2226.66 2955.45,2229.16C2952.12,2227.33 2948.79,2225.51 2945.46,2223.68Z" style="fill:rgb(177,139,68);fill-rule:nonzero;"/>
                    </g>
                    <g transform="matrix(1.52854,0,0,1.52854,-2131.76,1851.57)">
                        <path d="M2969.17,2268.8C2967.36,2267.79 2965.48,2266.34 2963.83,2264.48C2962.39,2262.86 2961.04,2260.77 2960.04,2258.36C2959.14,2256.16 2958.58,2253.65 2958.51,2251.09C2960.85,2252.38 2963.19,2253.67 2965.54,2254.96C2965.57,2255.42 2965.72,2257.2 2966.6,2258.8C2967.31,2260.07 2968.21,2260.8 2968.93,2261.2C2969.06,2261.27 2970.35,2262.03 2971.24,2261.52C2972.13,2261.01 2972.08,2259.47 2972.08,2259.34C2972.07,2258.45 2971.85,2257.5 2971.38,2256.61C2971.27,2256.4 2970.7,2255.3 2969.71,2254.16C2968.72,2253.01 2967.13,2251.47 2966.9,2251.24C2966.53,2250.89 2964.26,2248.64 2962.59,2246.58C2960.94,2244.55 2959.96,2242.24 2959.7,2241.61C2958.51,2238.77 2958.47,2235.91 2958.46,2235.1C2958.45,2233.22 2958.64,2229.6 2961.14,2228.19C2963.62,2226.78 2966.7,2228.19 2968.28,2229.06C2971.09,2230.6 2973.61,2232.88 2975.56,2236.08C2977.29,2238.93 2978.4,2242.3 2978.56,2246.18C2976.17,2244.87 2973.78,2243.56 2971.39,2242.24C2971.32,2240.89 2970.93,2239.71 2970.4,2238.78C2969.69,2237.55 2968.8,2236.84 2968.1,2236.45C2967.98,2236.39 2966.93,2235.78 2966.17,2236.3C2965.4,2236.83 2965.46,2238.38 2965.46,2238.5C2965.47,2240.32 2966.44,2241.7 2966.72,2242.09C2967.96,2243.81 2970.27,2246.13 2970.6,2246.46C2970.96,2246.83 2973.24,2249.17 2974.9,2251.22C2976.53,2253.25 2977.51,2255.52 2977.77,2256.14C2978.42,2257.68 2978.99,2259.83 2979,2262.45C2979.01,2262.97 2979.04,2265.7 2977.86,2267.76C2977.05,2269.17 2975.83,2269.93 2974.46,2270.14C2972.16,2270.5 2969.57,2269.02 2969.17,2268.8Z" style="fill:rgb(177,139,68);fill-rule:nonzero;"/>
                    </g>
                    <g transform="matrix(1.52854,0,0,1.52854,-2132.33,1852.71)">
                        <path d="M2989.84,2240.78C2989.9,2253.63 2989.97,2266.48 2990.03,2279.33C2987.82,2278.1 2985.61,2276.88 2983.4,2275.66C2983.33,2262.82 2983.26,2249.98 2983.18,2237.14C2985.4,2238.35 2987.62,2239.56 2989.84,2240.78Z" style="fill:rgb(177,139,68);fill-rule:nonzero;"/>
                    </g>
                    <g transform="matrix(1.52854,0,0,1.52854,-2132.72,1852.71)">
                        <path d="M3013.08,2265.58C3012.53,2263.87 3011.73,2262.48 3010.94,2261.46C3009.96,2260.2 3008.8,2259.27 3007.67,2258.65C3006.44,2257.97 3004.23,2257.07 3002.49,2258.8C3000.56,2260.73 3000.57,2264.7 3000.58,2265.74C3000.58,2266.92 3000.64,2271.14 3002.65,2275.19C3003.32,2276.52 3004.97,2279.46 3008.3,2281.29C3008.6,2281.46 3010.7,2282.68 3012.44,2281.83C3014.2,2280.97 3014.82,2278.46 3014.91,2278.13C3012.09,2276.58 3009.26,2275.02 3006.44,2273.46C3006.43,2271.15 3006.42,2268.84 3006.41,2266.53C3011.26,2269.2 3016.11,2271.86 3020.95,2274.53C3020.96,2277.45 3020.97,2280.37 3020.97,2283.29C3020.82,2283.95 3020.21,2286.43 3018.47,2288.45C3017.34,2289.75 3015.8,2290.61 3013.97,2290.85C3011.19,2291.21 3008.34,2289.59 3007.82,2289.31C3003.86,2287.11 3001.3,2283.77 3000.59,2282.81C2998.73,2280.34 2996.91,2277.05 2995.62,2273.14C2994.45,2269.6 2993.82,2265.74 2993.8,2262.01C2993.8,2261.15 2993.74,2256.36 2995.52,2252.78C2996.16,2251.5 2997.58,2249.2 3000.43,2248.49C3003.47,2247.74 3006.57,2249.35 3007.64,2249.94C3011.82,2252.22 3014.43,2255.5 3015.96,2257.85C3017.9,2260.83 3019.64,2264.73 3020.47,2269.64C3018.01,2268.28 3015.54,2266.93 3013.08,2265.58Z" style="fill:rgb(177,139,68);fill-rule:nonzero;"/>
                    </g>
                    <g transform="matrix(1.52854,0,0,1.52854,-2132.53,1852.71)">
                        <path d="M3049.25,2312.03C3047.01,2310.79 3044.77,2309.55 3042.53,2308.32C3038.78,2298.29 3035.03,2288.26 3031.28,2278.24C3031.3,2286.19 3031.31,2294.15 3031.32,2302.11C3029.09,2300.88 3026.86,2299.64 3024.63,2298.41C3024.6,2285.5 3024.58,2272.6 3024.55,2259.7C3026.79,2260.92 3029.03,2262.15 3031.26,2263.37C3035.02,2273.44 3038.77,2283.51 3042.53,2293.58C3042.52,2285.56 3042.52,2277.55 3042.51,2269.53C3044.76,2270.76 3047,2271.99 3049.25,2273.21L3049.25,2312.03Z" style="fill:rgb(177,139,68);fill-rule:nonzero;"/>
                    </g>
                </g>
            </g>
        </g>
    </g>
</svg>
