<?xml version="1.0" encoding="UTF-8" standalone="no"?>
<!DOCTYPE svg PUBLIC "-//W3C//DTD SVG 1.1//EN" "http://www.w3.org/Graphics/SVG/1.1/DTD/svg11.dtd">
<svg width="100%" height="100%" viewBox="0 0 1172 529" version="1.1" xmlns="http://www.w3.org/2000/svg" xmlns:xlink="http://www.w3.org/1999/xlink" xml:space="preserve" xmlns:serif="http://www.serif.com/" style="fill-rule:evenodd;clip-rule:evenodd;stroke-linejoin:round;stroke-miterlimit:2;">
    <g transform="matrix(1.33333,0,0,1.33333,0,0)">
        <g transform="matrix(-0.0934677,-0.161891,0.161891,-0.0934677,-482.23,855.778)">
            <path d="M387.133,4240.75L1286.5,4760L2185.87,4240.75L1286.5,3721.5L387.133,4240.75Z" style="fill:rgb(235,235,227);"/>
        </g>
        <g transform="matrix(0.186935,-9.07024e-18,9.07024e-18,0.186935,-67.4305,-695.68)">
            <path d="M387.133,4240.75L1286.5,4760L2185.87,4240.75L1286.5,3721.5L387.133,4240.75Z" style="fill:rgb(136,169,152);"/>
        </g>
        <g transform="matrix(-0.0934677,0.161891,-0.161891,-0.0934677,1067.85,439.233)">
            <path d="M387.133,4240.75L1286.5,4760L2185.87,4240.75L1286.5,3721.5L387.133,4240.75Z" style="fill:rgb(17,71,97);"/>
        </g>
        <g transform="matrix(1,0,0,1,-3467.04,-5806.82)">
            <g transform="matrix(0.679318,0,0,0.679318,2396.61,2471.8)">
                <g>
                    <g transform="matrix(1.52854,0,0,1.52854,-1915.78,1854.22)">
                        <path d="M2761.75,2095.04L2761.75,2182.79L2740.38,2182.79L2740.38,2146.67L2707.12,2146.67L2707.12,2182.79L2685.75,2182.79L2685.75,2095.04L2707.12,2095.04L2707.12,2129.42L2740.38,2129.42L2740.38,2095.04L2761.75,2095.04Z" style="fill:rgb(177,139,68);fill-rule:nonzero;"/>
                    </g>
                    <g transform="matrix(1.52854,0,0,1.52854,-1915.02,1854.22)">
                        <path d="M2852.38,2095.04C2842.25,2114.62 2832.12,2134.21 2822,2153.79L2822,2182.79L2800.62,2182.79L2800.62,2153.79C2790.5,2134.21 2780.38,2114.62 2770.25,2095.04L2794.5,2095.04C2800.17,2107.29 2805.83,2119.54 2811.5,2131.79C2817.12,2119.54 2822.75,2107.29 2828.38,2095.04L2852.38,2095.04Z" style="fill:rgb(177,139,68);fill-rule:nonzero;"/>
                    </g>
                    <g transform="matrix(1.52854,0,0,1.52854,-1914.63,1854.22)">
                        <path d="M2905.75,2182.79C2899.67,2171.75 2893.58,2160.71 2887.5,2149.67L2882.38,2149.67L2882.38,2182.79L2861,2182.79L2861,2095.04L2896.88,2095.04C2901.2,2095.04 2908.19,2095.51 2914.56,2098.67C2917.83,2100.29 2922.42,2103.24 2925.5,2108.6C2927.62,2112.29 2929.12,2116.95 2929.12,2122.67C2929.12,2128.76 2927.29,2133.97 2924.19,2138.29C2919.93,2144.22 2913.77,2146.8 2909.62,2148.04C2916.38,2159.62 2923.12,2171.21 2929.88,2182.79L2905.75,2182.79ZM2882.38,2134.54L2895.62,2134.54C2897.91,2134.54 2901.82,2134.23 2904.44,2131.67C2907.01,2129.15 2907.38,2125.69 2907.38,2123.54C2907.38,2121.43 2906.99,2118.16 2904.44,2115.67C2901.82,2113.1 2897.91,2112.79 2895.62,2112.79L2882.38,2112.79L2882.38,2134.54Z" style="fill:rgb(177,139,68);fill-rule:nonzero;"/>
                    </g>
                    <g transform="matrix(1.52854,0,0,1.52854,-1914.82,1854.22)">
                        <path d="M2963.5,2095.04L2963.5,2147.54C2963.5,2150.67 2963.94,2155.9 2967.38,2159.67C2970.79,2163.41 2975.72,2163.92 2978.75,2163.92C2981.81,2163.92 2986.74,2163.4 2990.25,2159.67C2993.79,2155.91 2994.25,2150.69 2994.25,2147.54L2994.25,2095.04L3015.62,2095.04L3015.62,2147.42C3015.62,2152.38 3014.96,2160.24 3010.62,2167.29C3007.23,2172.8 3002.66,2176.87 2997.19,2179.54C2990.05,2183.03 2983.07,2183.67 2978.38,2183.67C2973.76,2183.67 2966.78,2183.06 2959.81,2179.6C2954.68,2177.05 2950.19,2173.07 2946.88,2167.35C2942.75,2160.24 2942.12,2152.37 2942.12,2147.42L2942.12,2095.04L2963.5,2095.04Z" style="fill:rgb(177,139,68);fill-rule:nonzero;"/>
                    </g>
                    <g transform="matrix(1.52854,0,0,1.52854,-1915.59,1854.22)">
                        <path d="M3097.5,2123.29C3097.5,2128.8 3096.11,2133.43 3094,2137.23C3091.01,2142.61 3086.46,2145.7 3083.25,2147.42C3076.9,2150.81 3069.66,2151.29 3065.25,2151.29L3052,2151.29L3052,2182.79L3030.62,2182.79L3030.62,2095.04L3065.25,2095.04C3069.58,2095.04 3076.66,2095.5 3083,2098.67C3086.27,2100.3 3090.81,2103.27 3093.88,2108.67C3096.96,2114.08 3097.5,2119.61 3097.5,2123.29ZM3063.62,2134.29C3065.97,2134.29 3070.06,2133.99 3072.75,2131.42C3075.38,2128.9 3075.75,2125.45 3075.75,2123.29C3075.75,2121.13 3075.38,2117.68 3072.75,2115.17C3070.06,2112.59 3065.97,2112.29 3063.62,2112.29L3052,2112.29L3052,2134.29L3063.62,2134.29Z" style="fill:rgb(177,139,68);fill-rule:nonzero;"/>
                    </g>
                </g>
            </g>
        </g>
        <g transform="matrix(1.03837,0,0,1.03837,-2518.48,-2076.25)">
            <path d="M2858.88,2195.04C2868.12,2195.04 2876.21,2196.87 2883.12,2200.54C2890.04,2204.21 2895.4,2209.35 2899.19,2215.98C2902.98,2222.6 2904.88,2230.25 2904.88,2238.92C2904.88,2247.5 2902.98,2255.12 2899.19,2261.79C2895.4,2268.46 2890.02,2273.62 2883.06,2277.29C2876.1,2280.96 2868.04,2282.79 2858.88,2282.79L2826,2282.79L2826,2195.04L2858.88,2195.04ZM2857.5,2264.29C2865.58,2264.29 2871.88,2262.08 2876.38,2257.67C2880.88,2253.25 2883.12,2247 2883.12,2238.92C2883.12,2230.83 2880.88,2224.54 2876.38,2220.04C2871.88,2215.54 2865.58,2213.29 2857.5,2213.29L2847.38,2213.29L2847.38,2264.29L2857.5,2264.29Z" style="fill:rgb(177,139,68);fill-rule:nonzero;"/>
        </g>
        <g transform="matrix(1.03837,0,0,1.03837,-2518.84,-2076.25)">
            <path d="M2938.25,2212.17L2938.25,2229.92L2966.88,2229.92L2966.88,2246.42L2938.25,2246.42L2938.25,2265.67L2970.62,2265.67L2970.62,2282.79L2916.88,2282.79L2916.88,2195.04L2970.62,2195.04L2970.62,2212.17L2938.25,2212.17Z" style="fill:rgb(177,139,68);fill-rule:nonzero;"/>
        </g>
        <g transform="matrix(1.03837,0,0,1.03837,-2518.47,-2076.96)">
            <path d="M3016.25,2283.67C3009.83,2283.67 3004.08,2282.62 2999,2280.54C2993.92,2278.46 2989.85,2275.37 2986.81,2271.29C2983.77,2267.21 2982.17,2262.29 2982,2256.54L3004.75,2256.54C3005.08,2259.79 3006.21,2262.27 3008.12,2263.98C3010.04,2265.69 3012.54,2266.54 3015.62,2266.54C3018.79,2266.54 3021.29,2265.81 3023.12,2264.35C3024.96,2262.89 3025.88,2260.87 3025.88,2258.29C3025.88,2256.12 3025.15,2254.33 3023.69,2252.92C3022.23,2251.5 3020.44,2250.33 3018.31,2249.42C3016.19,2248.5 3013.17,2247.46 3009.25,2246.29C3003.58,2244.54 2998.96,2242.79 2995.38,2241.04C2991.79,2239.29 2988.71,2236.71 2986.12,2233.29C2983.54,2229.87 2982.25,2225.42 2982.25,2219.92C2982.25,2211.75 2985.21,2205.35 2991.12,2200.73C2997.04,2196.1 3004.75,2193.79 3014.25,2193.79C3023.92,2193.79 3031.71,2196.1 3037.62,2200.73C3043.54,2205.35 3046.71,2211.79 3047.12,2220.04L3024,2220.04C3023.83,2217.21 3022.79,2214.98 3020.88,2213.35C3018.96,2211.73 3016.5,2210.92 3013.5,2210.92C3010.92,2210.92 3008.83,2211.6 3007.25,2212.98C3005.67,2214.35 3004.88,2216.33 3004.88,2218.92C3004.88,2221.75 3006.21,2223.96 3008.88,2225.54C3011.54,2227.12 3015.71,2228.83 3021.38,2230.67C3027.04,2232.58 3031.65,2234.42 3035.19,2236.17C3038.73,2237.92 3041.79,2240.46 3044.38,2243.79C3046.96,2247.12 3048.25,2251.42 3048.25,2256.67C3048.25,2261.67 3046.98,2266.21 3044.44,2270.29C3041.9,2274.37 3038.21,2277.62 3033.38,2280.04C3028.54,2282.46 3022.83,2283.67 3016.25,2283.67Z" style="fill:rgb(177,139,68);fill-rule:nonzero;"/>
        </g>
        <g transform="matrix(1.03837,0,0,1.03837,-2518.89,-2076.25)">
            <rect x="3061.38" y="2195.04" width="21.375" height="87.75" style="fill:rgb(177,139,68);fill-rule:nonzero;"/>
        </g>
        <g transform="matrix(1.03837,0,0,1.03837,-2519.41,-2076.22)">
            <path d="M3156.5,2222.79C3154.92,2219.87 3152.65,2217.64 3149.69,2216.1C3146.73,2214.56 3143.25,2213.79 3139.25,2213.79C3132.33,2213.79 3126.79,2216.06 3122.62,2220.6C3118.46,2225.14 3116.38,2231.21 3116.38,2238.79C3116.38,2246.87 3118.56,2253.19 3122.94,2257.73C3127.31,2262.27 3133.33,2264.54 3141,2264.54C3146.25,2264.54 3150.69,2263.21 3154.31,2260.54C3157.94,2257.87 3160.58,2254.04 3162.25,2249.04L3135.12,2249.04L3135.12,2233.29L3181.62,2233.29L3181.62,2253.17C3180.04,2258.5 3177.35,2263.46 3173.56,2268.04C3169.77,2272.62 3164.96,2276.33 3159.12,2279.17C3153.29,2282 3146.71,2283.42 3139.38,2283.42C3130.71,2283.42 3122.98,2281.52 3116.19,2277.73C3109.4,2273.94 3104.1,2268.67 3100.31,2261.92C3096.52,2255.17 3094.62,2247.46 3094.62,2238.79C3094.62,2230.12 3096.52,2222.39 3100.31,2215.6C3104.1,2208.81 3109.38,2203.52 3116.12,2199.73C3122.88,2195.94 3130.58,2194.04 3139.25,2194.04C3149.75,2194.04 3158.6,2196.58 3165.81,2201.67C3173.02,2206.75 3177.79,2213.79 3180.12,2222.79L3156.5,2222.79Z" style="fill:rgb(177,139,68);fill-rule:nonzero;"/>
        </g>
        <g transform="matrix(1.03837,0,0,1.03837,-2519.08,-2076.25)">
            <path d="M3272,2282.79L3250.62,2282.79L3214.88,2228.67L3214.88,2282.79L3193.5,2282.79L3193.5,2195.04L3214.88,2195.04L3250.62,2249.42L3250.62,2195.04L3272,2195.04L3272,2282.79Z" style="fill:rgb(177,139,68);fill-rule:nonzero;"/>
        </g>
    </g>
</svg>
