<?xml version="1.0" encoding="UTF-8" standalone="no"?>
<!DOCTYPE svg PUBLIC "-//W3C//DTD SVG 1.1//EN" "http://www.w3.org/Graphics/SVG/1.1/DTD/svg11.dtd">
<svg width="100%" height="100%" viewBox="0 0 745 745" version="1.1" xmlns="http://www.w3.org/2000/svg" xmlns:xlink="http://www.w3.org/1999/xlink" xml:space="preserve" xmlns:serif="http://www.serif.com/" style="fill-rule:evenodd;clip-rule:evenodd;stroke-linejoin:round;stroke-miterlimit:2;">
    <g transform="matrix(5.55556,0,0,5.55556,0,0)">
        <g transform="matrix(7.44444,0,0,7.44444,-22.3333,-22.3333)">
            <g>
                <g>
                    <path d="M8,3C5.243,3 3,5.243 3,8L3,16C3,18.757 5.243,21 8,21L16,21C18.757,21 21,18.757 21,16L21,8C21,5.243 18.757,3 16,3L8,3ZM17.25,6C17.664,6 18,6.336 18,6.75C18,7.164 17.664,7.5 17.25,7.5C16.836,7.5 16.5,7.164 16.5,6.75C16.5,6.336 16.836,6 17.25,6ZM12,7C14.757,7 17,9.243 17,12C17,14.757 14.757,17 12,17C9.243,17 7,14.757 7,12C7,9.243 9.243,7 12,7ZM12,8.5C10.067,8.5 8.5,10.067 8.5,12C8.5,13.933 10.067,15.5 12,15.5C13.933,15.5 15.5,13.933 15.5,12C15.5,10.067 13.933,8.5 12,8.5Z" style="fill:rgb(253,253,250);fill-rule:nonzero;"/>
                </g>
            </g>
        </g>
    </g>
</svg>
