<?xml version="1.0" encoding="UTF-8" standalone="no"?>
<!DOCTYPE svg PUBLIC "-//W3C//DTD SVG 1.1//EN" "http://www.w3.org/Graphics/SVG/1.1/DTD/svg11.dtd">
<svg width="100%" height="100%" viewBox="0 0 1575 1821" version="1.1" xmlns="http://www.w3.org/2000/svg" xmlns:xlink="http://www.w3.org/1999/xlink" xml:space="preserve" xmlns:serif="http://www.serif.com/" style="fill-rule:evenodd;clip-rule:evenodd;stroke-linejoin:round;stroke-miterlimit:2;">
    <g transform="matrix(1.33333,0,0,1.33333,0,0)">
        <g transform="matrix(1.34453,0,0,1.34453,-4750.31,-297.614)">
            <g transform="matrix(-0.0934677,-0.161891,0.161891,-0.0934677,3050.83,1409.78)">
                <path d="M387.133,4240.75L1286.5,4760L2185.87,4240.75L1286.5,3721.5L387.133,4240.75Z" style="fill:rgb(235,235,227);"/>
            </g>
            <g transform="matrix(0.186935,-9.07024e-18,9.07024e-18,0.186935,3465.63,-140.68)">
                <path d="M387.133,4240.75L1286.5,4760L2185.87,4240.75L1286.5,3721.5L387.133,4240.75Z" style="fill:rgb(136,169,152);"/>
            </g>
            <g transform="matrix(-0.0934677,0.161891,-0.161891,-0.0934677,4600.91,994.233)">
                <path d="M387.133,4240.75L1286.5,4760L2185.87,4240.75L1286.5,3721.5L387.133,4240.75Z" style="fill:rgb(17,71,97);"/>
            </g>
            <g transform="matrix(1.03837,0,0,1.03837,1161.21,-1521.42)">
                <path d="M2761.75,2095.04L2761.75,2182.79L2740.38,2182.79L2740.38,2146.67L2707.12,2146.67L2707.12,2182.79L2685.75,2182.79L2685.75,2095.04L2707.12,2095.04L2707.12,2129.42L2740.38,2129.42L2740.38,2095.04L2761.75,2095.04Z" style="fill:rgb(177,139,68);fill-rule:nonzero;"/>
            </g>
            <g transform="matrix(1.03837,0,0,1.03837,1161.73,-1521.42)">
                <path d="M2852.38,2095.04L2822,2153.79L2822,2182.79L2800.62,2182.79L2800.62,2153.79L2770.25,2095.04L2794.5,2095.04L2811.5,2131.79L2828.38,2095.04L2852.38,2095.04Z" style="fill:rgb(177,139,68);fill-rule:nonzero;"/>
            </g>
            <g transform="matrix(1.03837,0,0,1.03837,1161.99,-1521.42)">
                <path d="M2905.75,2182.79L2887.5,2149.67L2882.38,2149.67L2882.38,2182.79L2861,2182.79L2861,2095.04L2896.88,2095.04C2903.79,2095.04 2909.69,2096.25 2914.56,2098.67C2919.44,2101.08 2923.08,2104.39 2925.5,2108.6C2927.92,2112.81 2929.12,2117.5 2929.12,2122.67C2929.12,2128.5 2927.48,2133.71 2924.19,2138.29C2920.9,2142.87 2916.04,2146.12 2909.62,2148.04L2929.88,2182.79L2905.75,2182.79ZM2882.38,2134.54L2895.62,2134.54C2899.54,2134.54 2902.48,2133.58 2904.44,2131.67C2906.4,2129.75 2907.38,2127.04 2907.38,2123.54C2907.38,2120.21 2906.4,2117.58 2904.44,2115.67C2902.48,2113.75 2899.54,2112.79 2895.62,2112.79L2882.38,2112.79L2882.38,2134.54Z" style="fill:rgb(177,139,68);fill-rule:nonzero;"/>
            </g>
            <g transform="matrix(1.03837,0,0,1.03837,1161.86,-1521.42)">
                <path d="M2963.5,2095.04L2963.5,2147.54C2963.5,2152.79 2964.79,2156.83 2967.38,2159.67C2969.96,2162.5 2973.75,2163.92 2978.75,2163.92C2983.75,2163.92 2987.58,2162.5 2990.25,2159.67C2992.92,2156.83 2994.25,2152.79 2994.25,2147.54L2994.25,2095.04L3015.62,2095.04L3015.62,2147.42C3015.62,2155.25 3013.96,2161.87 3010.62,2167.29C3007.29,2172.71 3002.81,2176.79 2997.19,2179.54C2991.56,2182.29 2985.29,2183.67 2978.38,2183.67C2971.46,2183.67 2965.27,2182.31 2959.81,2179.6C2954.35,2176.89 2950.04,2172.81 2946.88,2167.35C2943.71,2161.89 2942.12,2155.25 2942.12,2147.42L2942.12,2095.04L2963.5,2095.04Z" style="fill:rgb(177,139,68);fill-rule:nonzero;"/>
            </g>
            <g transform="matrix(1.03837,0,0,1.03837,1161.34,-1521.42)">
                <path d="M3097.5,2123.29C3097.5,2128.37 3096.33,2133.02 3094,2137.23C3091.67,2141.44 3088.08,2144.83 3083.25,2147.42C3078.42,2150 3072.42,2151.29 3065.25,2151.29L3052,2151.29L3052,2182.79L3030.62,2182.79L3030.62,2095.04L3065.25,2095.04C3072.25,2095.04 3078.17,2096.25 3083,2098.67C3087.83,2101.08 3091.46,2104.42 3093.88,2108.67C3096.29,2112.92 3097.5,2117.79 3097.5,2123.29ZM3063.62,2134.29C3067.71,2134.29 3070.75,2133.33 3072.75,2131.42C3074.75,2129.5 3075.75,2126.79 3075.75,2123.29C3075.75,2119.79 3074.75,2117.08 3072.75,2115.17C3070.75,2113.25 3067.71,2112.29 3063.62,2112.29L3052,2112.29L3052,2134.29L3063.62,2134.29Z" style="fill:rgb(177,139,68);fill-rule:nonzero;"/>
            </g>
            <g transform="matrix(1.03837,0,0,1.03837,1014.58,-1522.25)">
                <path d="M2858.88,2195.04C2868.12,2195.04 2876.21,2196.87 2883.12,2200.54C2890.04,2204.21 2895.4,2209.35 2899.19,2215.98C2902.98,2222.6 2904.88,2230.25 2904.88,2238.92C2904.88,2247.5 2902.98,2255.12 2899.19,2261.79C2895.4,2268.46 2890.02,2273.62 2883.06,2277.29C2876.1,2280.96 2868.04,2282.79 2858.88,2282.79L2826,2282.79L2826,2195.04L2858.88,2195.04ZM2857.5,2264.29C2865.58,2264.29 2871.88,2262.08 2876.38,2257.67C2880.88,2253.25 2883.12,2247 2883.12,2238.92C2883.12,2230.83 2880.88,2224.54 2876.38,2220.04C2871.88,2215.54 2865.58,2213.29 2857.5,2213.29L2847.38,2213.29L2847.38,2264.29L2857.5,2264.29Z" style="fill:rgb(177,139,68);fill-rule:nonzero;"/>
            </g>
            <g transform="matrix(1.03837,0,0,1.03837,1014.22,-1522.25)">
                <path d="M2938.25,2212.17L2938.25,2229.92L2966.88,2229.92L2966.88,2246.42L2938.25,2246.42L2938.25,2265.67L2970.62,2265.67L2970.62,2282.79L2916.88,2282.79L2916.88,2195.04L2970.62,2195.04L2970.62,2212.17L2938.25,2212.17Z" style="fill:rgb(177,139,68);fill-rule:nonzero;"/>
            </g>
            <g transform="matrix(1.03837,0,0,1.03837,1014.59,-1522.96)">
                <path d="M3016.25,2283.67C3009.83,2283.67 3004.08,2282.62 2999,2280.54C2993.92,2278.46 2989.85,2275.37 2986.81,2271.29C2983.77,2267.21 2982.17,2262.29 2982,2256.54L3004.75,2256.54C3005.08,2259.79 3006.21,2262.27 3008.12,2263.98C3010.04,2265.69 3012.54,2266.54 3015.62,2266.54C3018.79,2266.54 3021.29,2265.81 3023.12,2264.35C3024.96,2262.89 3025.88,2260.87 3025.88,2258.29C3025.88,2256.12 3025.15,2254.33 3023.69,2252.92C3022.23,2251.5 3020.44,2250.33 3018.31,2249.42C3016.19,2248.5 3013.17,2247.46 3009.25,2246.29C3003.58,2244.54 2998.96,2242.79 2995.38,2241.04C2991.79,2239.29 2988.71,2236.71 2986.12,2233.29C2983.54,2229.87 2982.25,2225.42 2982.25,2219.92C2982.25,2211.75 2985.21,2205.35 2991.12,2200.73C2997.04,2196.1 3004.75,2193.79 3014.25,2193.79C3023.92,2193.79 3031.71,2196.1 3037.62,2200.73C3043.54,2205.35 3046.71,2211.79 3047.12,2220.04L3024,2220.04C3023.83,2217.21 3022.79,2214.98 3020.88,2213.35C3018.96,2211.73 3016.5,2210.92 3013.5,2210.92C3010.92,2210.92 3008.83,2211.6 3007.25,2212.98C3005.67,2214.35 3004.88,2216.33 3004.88,2218.92C3004.88,2221.75 3006.21,2223.96 3008.88,2225.54C3011.54,2227.12 3015.71,2228.83 3021.38,2230.67C3027.04,2232.58 3031.65,2234.42 3035.19,2236.17C3038.73,2237.92 3041.79,2240.46 3044.38,2243.79C3046.96,2247.12 3048.25,2251.42 3048.25,2256.67C3048.25,2261.67 3046.98,2266.21 3044.44,2270.29C3041.9,2274.37 3038.21,2277.62 3033.38,2280.04C3028.54,2282.46 3022.83,2283.67 3016.25,2283.67Z" style="fill:rgb(177,139,68);fill-rule:nonzero;"/>
            </g>
            <g transform="matrix(1.03837,0,0,1.03837,1014.17,-1522.25)">
                <rect x="3061.38" y="2195.04" width="21.375" height="87.75" style="fill:rgb(177,139,68);fill-rule:nonzero;"/>
            </g>
            <g transform="matrix(1.03837,0,0,1.03837,1014.65,-1522.22)">
                <path d="M3156.5,2222.79C3154.92,2219.87 3152.65,2217.64 3149.69,2216.1C3146.73,2214.56 3143.25,2213.79 3139.25,2213.79C3132.33,2213.79 3126.79,2216.06 3122.62,2220.6C3118.46,2225.14 3116.38,2231.21 3116.38,2238.79C3116.38,2246.87 3118.56,2253.19 3122.94,2257.73C3127.31,2262.27 3133.33,2264.54 3141,2264.54C3146.25,2264.54 3150.69,2263.21 3154.31,2260.54C3157.94,2257.87 3160.58,2254.04 3162.25,2249.04L3135.12,2249.04L3135.12,2233.29L3181.62,2233.29L3181.62,2253.17C3180.04,2258.5 3177.35,2263.46 3173.56,2268.04C3169.77,2272.62 3164.96,2276.33 3159.12,2279.17C3153.29,2282 3146.71,2283.42 3139.38,2283.42C3130.71,2283.42 3122.98,2281.52 3116.19,2277.73C3109.4,2273.94 3104.1,2268.67 3100.31,2261.92C3096.52,2255.17 3094.62,2247.46 3094.62,2238.79C3094.62,2230.12 3096.52,2222.39 3100.31,2215.6C3104.1,2208.81 3109.38,2203.52 3116.12,2199.73C3122.88,2195.94 3130.58,2194.04 3139.25,2194.04C3149.75,2194.04 3158.6,2196.58 3165.81,2201.67C3173.02,2206.75 3177.79,2213.79 3180.12,2222.79L3156.5,2222.79Z" style="fill:rgb(177,139,68);fill-rule:nonzero;"/>
            </g>
            <g transform="matrix(1.03837,0,0,1.03837,1013.98,-1522.25)">
                <path d="M3272,2282.79L3250.62,2282.79L3214.88,2228.67L3214.88,2282.79L3193.5,2282.79L3193.5,2195.04L3214.88,2195.04L3250.62,2249.42L3250.62,2195.04L3272,2195.04L3272,2282.79Z" style="fill:rgb(177,139,68);fill-rule:nonzero;"/>
            </g>
        </g>
    </g>
</svg>
