<?xml version="1.0" encoding="UTF-8" standalone="no"?>
<!DOCTYPE svg PUBLIC "-//W3C//DTD SVG 1.1//EN" "http://www.w3.org/Graphics/SVG/1.1/DTD/svg11.dtd">
<svg width="100%" height="100%" viewBox="0 0 1575 1821" version="1.1" xmlns="http://www.w3.org/2000/svg" xmlns:xlink="http://www.w3.org/1999/xlink" xml:space="preserve" xmlns:serif="http://www.serif.com/" style="fill-rule:evenodd;clip-rule:evenodd;stroke-linecap:round;stroke-linejoin:round;stroke-miterlimit:1.5;">
    <g transform="matrix(1.33333,0,0,1.33333,0,0)">
        <g transform="matrix(0.351921,0,0,0.351921,-505.374,-119.893)">
            <path d="M4232.97,1940.75L4232.97,3232.25L3114.5,3878L3114.5,2586.5L4232.97,1940.75Z" style="fill:rgb(17,71,97);stroke:rgb(253,253,250);stroke-width:11.84px;"/>
        </g>
        <g transform="matrix(0.351921,0,0,-0.351921,-506.097,1247.42)">
            <path d="M3114.5,1295L4232.97,1940.75L3114.5,2586.5L1996.03,1940.75L3114.5,1295Z" style="fill:rgb(177,139,68);stroke:rgb(253,253,250);stroke-width:11.84px;"/>
        </g>
        <g transform="matrix(0.351921,0,0,-0.351921,-899.368,1928.19)">
            <path d="M4232.97,1940.75L3114.5,2586.5L3114.5,3878L4232.97,3232.25L4232.97,1940.75Z" style="fill:rgb(235,235,227);stroke:rgb(253,253,250);stroke-width:2.84px;"/>
        </g>
        <g transform="matrix(0.351921,0,0,-0.351921,-899.25,1473.34)">
            <path d="M3673.74,1886.21L4232.97,1940.75L3114.5,2586.5L2555.26,2531.96L3673.74,1886.21Z" style="fill:rgb(136,169,152);stroke:rgb(253,253,250);stroke-width:11.84px;"/>
        </g>
        <g transform="matrix(-0.351921,0,0,-0.351921,2080.35,1474.16)">
            <path d="M3673.74,1886.21L4232.97,1940.75L3114.5,2586.5L2555.26,2531.96L3673.74,1886.21Z" style="fill:rgb(136,169,152);stroke:rgb(253,253,250);stroke-width:11.84px;"/>
        </g>
        <g transform="matrix(0.351921,0,0,-0.351921,-111.761,1019.1)">
            <path d="M3114.5,1295L3415.04,1733.17L2296.57,2378.92L1996.03,1940.75L3114.5,1295Z" style="fill:rgb(136,169,152);stroke:rgb(253,253,250);stroke-width:11.84px;"/>
        </g>
        <g transform="matrix(0.351921,0,0,0.351921,-611.253,-274.654)">
            <path d="M3114.5,1295L3415.04,1733.17L2296.57,2378.92L1996.03,1940.75L3114.5,1295Z" style="fill:rgb(136,169,152);stroke:rgb(253,253,250);stroke-width:11.84px;"/>
        </g>
        <g transform="matrix(0.642403,0,0,0.642403,-2436.54,-991.953)">
            <path d="M4712.34,2067.71L4712.62,2773.47" style="fill:none;stroke:rgb(140,114,65);stroke-opacity:0.76;stroke-width:6.49px;"/>
        </g>
    </g>
</svg>
